<svg width="30px" height="30px" xmlns="http://www.w3.org/2000/svg" viewBox="0 0 48 48"><defs><style>.cls-1{fill:#201602}</style></defs><g id="Layer_2" data-name="Layer 2"><g id="layer_1-2" data-name="layer 1"><path class="cls-1" d="M24 48a24 24 0 1 1 24-24 24 24 0 0 1-24 24zm0-46a22 22 0 1 0 22 22A22 22 0 0 0 24 2z"/><path class="cls-1" d="M18 37a1 1 0 0 1-.46-.11A1 1 0 0 1 17 36V12a1 1 0 0 1 .54-.89 1 1 0 0 1 1 .07l17 12a1 1 0 0 1 0 1.64l-17 12A1 1 0 0 1 18 37zm1-23.07v20.14L33.27 24z"/></g></g></svg>